<svg width="72" height="24" viewBox="0 0 72 24" fill="none" xmlns="http://www.w3.org/2000/svg" role="img" aria-label="FigPro optimize logo">
  <defs>
    <linearGradient id="logoGlow" x1="4" y1="4" x2="20" y2="20" gradientUnits="userSpaceOnUse">
      <stop stop-color="#6FEEFF"/>
      <stop offset="1" stop-color="#56FFA6"/>
    </linearGradient>
  </defs>
  <rect x="1" y="1" width="22" height="22" rx="7" fill="#14181F" stroke="#2B303B"/>
  <circle cx="12" cy="12" r="6.75" stroke="url(#logoGlow)" stroke-width="1.6" opacity="0.85"/>
  <path
    d="M12 6.1V11.6L14.4 9.2L15.8 10.6L12 14.4L8.2 10.6L9.6 9.2L12 11.6V6.1Z"
    fill="url(#logoGlow)"
  />
  <path
    d="M17.7 5.9L18.2 7.2L19.5 7.7L18.2 8.2L17.7 9.5L17.2 8.2L15.9 7.7L17.2 7.2L17.7 5.9Z"
    fill="#6FEEFF"
  />
  <path
    d="M24.5 6.4H29.1C31 6.4 32.3 7.1 33 8.5C33.7 9.9 33.6 11.4 32.7 12.6C31.8 13.8 30.3 14.4 28.3 14.4H26.6V18H24.5V6.4ZM26.6 12.7H28.1C29.3 12.7 30.1 12.5 30.6 12.1C31.1 11.7 31.4 11.1 31.4 10.3C31.4 9.5 31.1 8.9 30.6 8.5C30.1 8.1 29.2 7.9 28.1 7.9H26.6V12.7Z"
    fill="#FFFFFF"
  />
  <path
    d="M35.2 6.4H37.3V18H35.2V6.4ZM40.2 6.4H42.3V18H40.2V6.4ZM45.2 6.4H47.3V18H45.2V6.4Z"
    fill="#56FFA6"
  />
  <path
    d="M50.7 15.2C50.7 14.5 51.3 13.9 52 13.9C52.8 13.9 53.3 14.5 53.3 15.2C53.3 15.9 52.8 16.5 52 16.5C51.3 16.5 50.7 15.9 50.7 15.2Z"
    fill="#6FEEFF"
  />
  <path
    d="M54.8 11.2C54.8 8.1 57.2 5.9 60.4 5.9C62.4 5.9 64 6.7 65 8L63.4 9.2C62.8 8.4 62 7.9 60.9 7.9C59 7.9 57.6 9.3 57.6 11.2C57.6 13.1 59 14.5 60.9 14.5C62 14.5 62.8 14 63.4 13.2L65 14.4C64 15.7 62.4 16.5 60.4 16.5C57.2 16.5 54.8 14.2 54.8 11.2Z"
    fill="#FFFFFF"
  />
  <path
    d="M67.2 6.4H69.3V18H67.2V6.4Z"
    fill="#FFFFFF"
  />
</svg>
